<svg width="471" height="400" viewBox="0 0 471 400" fill="none" xmlns="http://www.w3.org/2000/svg">
<ellipse cx="146.5" cy="44.1436" rx="20.9595" ry="20.6923" fill="url(#paint0_linear)"/>
<path d="M131.892 92.4256H161.108V269L150.946 267.621L140.784 266.931H131.892V92.4256Z" fill="url(#paint1_linear)"/>
<path d="M123 187.61H131.892V215.2L126.811 200.026L123 187.61Z" fill="url(#paint2_linear)"/>
<path d="M170 187.61H161.108V215.2L166.189 200.026L170 187.61Z" fill="url(#paint3_linear)"/>
<path d="M170 106.221H161.108V132.431L165.554 118.636L170 106.221Z" fill="url(#paint4_linear)"/>
<path d="M164.919 99.3231H161.108V106.221L163.014 102.59L164.919 99.3231Z" fill="url(#paint5_linear)"/>
<path d="M128.081 99.3231H131.892V106.221L129.986 102.59L128.081 99.3231Z" fill="url(#paint6_linear)"/>
<path d="M123 106.221H131.892V132.431L127.446 118.636L123 106.221Z" fill="url(#paint7_linear)"/>
<path d="M147.135 20.6923L162.378 32.4179H133.162L147.135 20.6923Z" fill="url(#paint8_linear)"/>
<rect x="145.865" width="2.54054" height="23.4513" fill="url(#paint9_linear)"/>
<ellipse cx="147.135" cy="15.8641" rx="3.81081" ry="3.44872" fill="url(#paint10_linear)"/>
<ellipse cx="147.135" cy="8.27692" rx="2.54054" ry="2.75897" fill="url(#paint11_linear)"/>
<rect x="131.892" y="63.4564" width="29.2162" height="33.1077" fill="url(#paint12_linear)"/>
<path d="M135.703 74.4923H145.23V92.4256H135.703V74.4923Z" fill="white"/>
<rect x="135.703" y="70.3539" width="9.52703" height="9.65641" rx="3.5" fill="white"/>
<path d="M147.135 74.4923H156.662V92.4256H147.135V74.4923Z" fill="white"/>
<rect x="147.135" y="70.3539" width="9.52703" height="9.65641" rx="3.5" fill="white"/>
<ellipse cx="132.527" cy="127.603" rx="5.71622" ry="4.82821" fill="url(#paint13_linear)"/>
<ellipse cx="160.473" cy="127.603" rx="5.71622" ry="4.82821" fill="url(#paint14_linear)"/>
<ellipse cx="190.5" cy="221.276" rx="24.5" ry="21.1184" fill="url(#paint15_linear)"/>
<path d="M176.261 249.434H204.111V279L197.515 276.726L188.72 274.451L180.658 272.177L176.261 271.257L176.261 249.434Z" fill="url(#paint16_linear)"/>
<rect x="170.083" y="246.618" width="40.8333" height="4.22368" fill="url(#paint17_linear)"/>
<rect x="174.167" y="240.987" width="32.6667" height="4.22368" fill="url(#paint18_linear)"/>
<path d="M190.5 193.118L206.833 205.086H175.528L190.5 193.118Z" fill="url(#paint19_linear)"/>
<rect x="189.139" y="172" width="2.72222" height="23.9342" fill="url(#paint20_linear)"/>
<ellipse cx="190.5" cy="188.191" rx="4.08333" ry="3.51974" fill="url(#paint21_linear)"/>
<ellipse cx="190.5" cy="180.447" rx="2.72222" ry="2.81579" fill="url(#paint22_linear)"/>
<ellipse cx="334.5" cy="201.16" rx="24.1579" ry="22.4733" fill="url(#paint23_linear)"/>
<path d="M318.395 223.634H350.605V336H345.908L337.855 335.298L332.487 334.595L324.434 333.191L317.053 331.084L318.395 223.634Z" fill="url(#paint24_linear)"/>
<rect x="309" y="218.015" width="51" height="5.61832" fill="url(#paint25_linear)"/>
<path d="M334.5 174.473L350.605 186.412H319.737L334.5 174.473Z" fill="url(#paint26_linear)"/>
<rect x="333.158" y="152" width="2.68421" height="23.8779" fill="url(#paint27_linear)"/>
<ellipse cx="334.5" cy="168.153" rx="4.02632" ry="3.51145" fill="url(#paint28_linear)"/>
<ellipse cx="334.5" cy="160.427" rx="2.68421" ry="2.80916" fill="url(#paint29_linear)"/>
<ellipse cx="263" cy="241.519" rx="38.1333" ry="34.5629" fill="url(#paint30_linear)"/>
<path d="M211 263.639H315V330L294.622 323.087L274.243 314.101L252.459 302.35L227.865 288.525L211 282V263.639Z" fill="url(#paint31_linear)"/>
<path d="M262.307 198.661L278.947 210.412H247.053L262.307 198.661Z" fill="url(#paint32_linear)"/>
<rect x="260.92" y="177.923" width="2.77333" height="23.5027" fill="url(#paint33_linear)"/>
<ellipse cx="262.307" cy="193.822" rx="5.54667" ry="4.8388" fill="url(#paint34_linear)"/>
<ellipse cx="262.307" cy="184.145" rx="4.16" ry="3.45629" fill="url(#paint35_linear)"/>
<path d="M257.453 166.863C259.533 177.923 278.947 169.628 269.933 175.85C256.067 181.38 251.213 172.662 251.213 166.172C250.52 159.259 258.147 150.964 267.853 155.112C274.093 156.494 255.542 156.701 257.453 166.863Z" fill="url(#paint36_linear)"/>
<path d="M267.16 159.951L268.25 163.294H271.776L268.923 165.361L270.013 168.704L267.16 166.638L264.307 168.704L265.397 165.361L262.544 163.294H266.07L267.16 159.951Z" fill="url(#paint37_linear)"/>
<path d="M315 271H318V331L315 330V271Z" fill="url(#paint38_linear)"/>
<path d="M204 271H211V282L204 279V271Z" fill="url(#paint39_linear)"/>
<path fill-rule="evenodd" clip-rule="evenodd" d="M0.901314 346.881C29.3502 330.792 65.2107 321.742 103.975 326.153C143.969 330.705 183.957 344.083 212.441 362.098C272.336 399.977 322.67 399.934 362.389 384.72C400.945 369.951 429.602 340.846 447.296 317.948C446.714 318.401 446.129 318.857 445.543 319.313C445.497 319.349 445.452 319.384 445.407 319.419C421.962 337.679 395.264 358.473 360.393 367.072C323.88 376.075 278.53 371.687 218.683 337.391C189.546 320.693 139.549 302.359 97.6131 302.005C56.6023 301.658 26.7913 324.027 0.901314 346.881ZM447.449 316.005L446.449 317.005C445.414 317.809 445.495 317.69 444.449 318.505C420.957 336.799 399.46 360.972 364.907 369.492C328.872 378.377 283.931 374.121 224.328 339.964C194.932 323.118 139.766 302.361 97.6131 302.005C55.4696 301.648 26.1859 321.689 0 346.042L0.619961 346.575C0.450212 346.676 0.280859 346.779 0.111905 346.881L0.901333 347.92C29.1605 330.77 68.8767 326.499 108.685 331.03C148.48 335.559 188.243 348.873 216.517 366.754C276.775 404.863 327.622 404.906 367.83 389.505C407.975 374.127 430.175 342.138 447.771 318.863L448.449 315.505C448.233 315.79 447.668 315.717 447.449 316.005Z" fill="url(#paint40_linear)"/>
<path d="M103.975 326.153C65.2107 321.742 29.3502 330.792 0.901314 346.881C26.7913 324.027 56.6023 301.658 97.6131 302.005C139.549 302.359 189.546 320.693 218.683 337.391C278.53 371.687 323.88 376.075 360.393 367.072C395.264 358.473 421.962 337.679 445.407 319.419L445.543 319.313C446.129 318.857 446.714 318.401 447.296 317.948C429.602 340.846 400.945 369.951 362.389 384.72C322.67 399.934 272.336 399.977 212.441 362.098C183.957 344.083 143.969 330.705 103.975 326.153Z" fill="url(#paint41_linear)"/>
<path fill-rule="evenodd" clip-rule="evenodd" d="M23.9004 305.591C52.3208 288.53 88.1455 278.933 126.871 283.612C166.825 288.439 206.773 302.624 235.229 321.726C295.064 361.893 345.347 361.847 385.027 345.714C423.544 330.054 452.172 299.192 469.849 274.911C469.267 275.392 468.683 275.874 468.097 276.359C468.052 276.396 468.006 276.434 467.961 276.471C444.54 295.833 417.868 317.883 383.033 327C346.556 336.547 301.251 331.894 241.464 295.527C212.357 277.822 162.409 258.381 120.515 258.005C79.5457 257.637 49.7645 281.357 23.9004 305.591ZM470.001 272.85L469.002 273.911C467.968 274.763 468.049 274.637 467.004 275.501C443.536 294.9 422.06 320.532 387.542 329.566C351.543 338.988 306.647 334.475 247.104 298.256C217.737 280.393 162.626 258.383 120.515 258.005C78.4141 257.627 49.1597 278.878 23 304.701L23.6193 305.266C23.4498 305.374 23.2806 305.482 23.1118 305.591L23.9004 306.693C52.1313 288.507 91.8078 283.979 131.576 288.783C171.332 293.586 211.055 307.702 239.3 326.663C299.498 367.073 350.295 367.119 390.462 350.788C430.567 334.482 452.745 300.562 470.323 275.881L471 272.32C470.784 272.623 470.22 272.545 470.001 272.85Z" fill="url(#paint42_linear)"/>
<path d="M126.871 283.612C88.1455 278.933 52.3208 288.53 23.9004 305.591C49.7645 281.357 79.5457 257.637 120.515 258.005C162.409 258.381 212.357 277.822 241.464 295.527C301.251 331.894 346.556 336.547 383.033 327C417.868 317.883 444.54 295.833 467.961 276.471L468.097 276.359C468.683 275.874 469.267 275.392 469.849 274.911C452.172 299.192 423.544 330.054 385.027 345.714C345.347 361.847 295.064 361.893 235.229 321.726C206.773 302.624 166.825 288.439 126.871 283.612Z" fill="url(#paint43_linear)"/>
<defs>
<linearGradient id="paint0_linear" x1="146.5" y1="23.4513" x2="146.5" y2="64.8359" gradientUnits="userSpaceOnUse">
<stop offset="0.671875" stop-color="#072448"/>
<stop offset="1" stop-color="white" stop-opacity="0"/>
</linearGradient>
<linearGradient id="paint1_linear" x1="146.5" y1="92.4256" x2="146.5" y2="269" gradientUnits="userSpaceOnUse">
<stop offset="0.671875" stop-color="#072448"/>
<stop offset="1" stop-color="white" stop-opacity="0"/>
</linearGradient>
<linearGradient id="paint2_linear" x1="127.446" y1="187.61" x2="127.446" y2="215.2" gradientUnits="userSpaceOnUse">
<stop offset="0.671875" stop-color="#072448"/>
<stop offset="1" stop-color="white" stop-opacity="0"/>
</linearGradient>
<linearGradient id="paint3_linear" x1="165.554" y1="187.61" x2="165.554" y2="215.2" gradientUnits="userSpaceOnUse">
<stop offset="0.671875" stop-color="#072448"/>
<stop offset="1" stop-color="white" stop-opacity="0"/>
</linearGradient>
<linearGradient id="paint4_linear" x1="165.554" y1="106.221" x2="165.554" y2="132.431" gradientUnits="userSpaceOnUse">
<stop offset="0.671875" stop-color="#072448"/>
<stop offset="1" stop-color="white" stop-opacity="0"/>
</linearGradient>
<linearGradient id="paint5_linear" x1="163.014" y1="99.3231" x2="163.014" y2="106.221" gradientUnits="userSpaceOnUse">
<stop offset="0.671875" stop-color="#072448"/>
<stop offset="1" stop-color="white" stop-opacity="0"/>
</linearGradient>
<linearGradient id="paint6_linear" x1="129.986" y1="99.3231" x2="129.986" y2="106.221" gradientUnits="userSpaceOnUse">
<stop offset="0.671875" stop-color="#072448"/>
<stop offset="1" stop-color="white" stop-opacity="0"/>
</linearGradient>
<linearGradient id="paint7_linear" x1="127.446" y1="106.221" x2="127.446" y2="132.431" gradientUnits="userSpaceOnUse">
<stop offset="0.671875" stop-color="#072448"/>
<stop offset="1" stop-color="white" stop-opacity="0"/>
</linearGradient>
<linearGradient id="paint8_linear" x1="147.77" y1="20.6923" x2="147.77" y2="32.4179" gradientUnits="userSpaceOnUse">
<stop offset="0.671875" stop-color="#072448"/>
<stop offset="1" stop-color="white" stop-opacity="0"/>
</linearGradient>
<linearGradient id="paint9_linear" x1="147.135" y1="0" x2="147.135" y2="23.4513" gradientUnits="userSpaceOnUse">
<stop offset="0.671875" stop-color="#072448"/>
<stop offset="1" stop-color="white" stop-opacity="0"/>
</linearGradient>
<linearGradient id="paint10_linear" x1="147.135" y1="12.4154" x2="147.135" y2="19.3128" gradientUnits="userSpaceOnUse">
<stop offset="0.671875" stop-color="#072448"/>
<stop offset="1" stop-color="white" stop-opacity="0"/>
</linearGradient>
<linearGradient id="paint11_linear" x1="147.135" y1="5.51795" x2="147.135" y2="11.0359" gradientUnits="userSpaceOnUse">
<stop offset="0.671875" stop-color="#072448"/>
<stop offset="1" stop-color="white" stop-opacity="0"/>
</linearGradient>
<linearGradient id="paint12_linear" x1="146.5" y1="63.4564" x2="146.5" y2="96.5641" gradientUnits="userSpaceOnUse">
<stop offset="0.671875" stop-color="#072448"/>
<stop offset="1" stop-color="white" stop-opacity="0"/>
</linearGradient>
<linearGradient id="paint13_linear" x1="132.527" y1="122.774" x2="132.527" y2="132.431" gradientUnits="userSpaceOnUse">
<stop offset="0.671875" stop-color="#072448"/>
<stop offset="1" stop-color="white" stop-opacity="0"/>
</linearGradient>
<linearGradient id="paint14_linear" x1="160.473" y1="122.774" x2="160.473" y2="132.431" gradientUnits="userSpaceOnUse">
<stop offset="0.671875" stop-color="#072448"/>
<stop offset="1" stop-color="white" stop-opacity="0"/>
</linearGradient>
<linearGradient id="paint15_linear" x1="190.5" y1="200.158" x2="190.5" y2="242.395" gradientUnits="userSpaceOnUse">
<stop offset="0.671875" stop-color="#072448"/>
<stop offset="1" stop-color="white" stop-opacity="0"/>
</linearGradient>
<linearGradient id="paint16_linear" x1="190.186" y1="249.434" x2="190.186" y2="279" gradientUnits="userSpaceOnUse">
<stop offset="0.671875" stop-color="#072448"/>
<stop offset="1" stop-color="white" stop-opacity="0"/>
</linearGradient>
<linearGradient id="paint17_linear" x1="190.5" y1="246.618" x2="190.5" y2="250.842" gradientUnits="userSpaceOnUse">
<stop offset="0.671875" stop-color="#072448"/>
<stop offset="1" stop-color="white" stop-opacity="0"/>
</linearGradient>
<linearGradient id="paint18_linear" x1="190.5" y1="240.987" x2="190.5" y2="245.211" gradientUnits="userSpaceOnUse">
<stop offset="0.671875" stop-color="#072448"/>
<stop offset="1" stop-color="white" stop-opacity="0"/>
</linearGradient>
<linearGradient id="paint19_linear" x1="191.181" y1="193.118" x2="191.181" y2="205.086" gradientUnits="userSpaceOnUse">
<stop offset="0.671875" stop-color="#072448"/>
<stop offset="1" stop-color="white" stop-opacity="0"/>
</linearGradient>
<linearGradient id="paint20_linear" x1="190.5" y1="172" x2="190.5" y2="195.934" gradientUnits="userSpaceOnUse">
<stop offset="0.671875" stop-color="#072448"/>
<stop offset="1" stop-color="white" stop-opacity="0"/>
</linearGradient>
<linearGradient id="paint21_linear" x1="190.5" y1="184.671" x2="190.5" y2="191.711" gradientUnits="userSpaceOnUse">
<stop offset="0.671875" stop-color="#072448"/>
<stop offset="1" stop-color="white" stop-opacity="0"/>
</linearGradient>
<linearGradient id="paint22_linear" x1="190.5" y1="177.632" x2="190.5" y2="183.263" gradientUnits="userSpaceOnUse">
<stop offset="0.671875" stop-color="#072448"/>
<stop offset="1" stop-color="white" stop-opacity="0"/>
</linearGradient>
<linearGradient id="paint23_linear" x1="334.5" y1="178.687" x2="334.5" y2="223.634" gradientUnits="userSpaceOnUse">
<stop offset="0.671875" stop-color="#072448"/>
<stop offset="1" stop-color="white" stop-opacity="0"/>
</linearGradient>
<linearGradient id="paint24_linear" x1="333.829" y1="223.634" x2="333.829" y2="336" gradientUnits="userSpaceOnUse">
<stop offset="0.671875" stop-color="#072448"/>
<stop offset="1" stop-color="white" stop-opacity="0"/>
</linearGradient>
<linearGradient id="paint25_linear" x1="334.5" y1="218.015" x2="334.5" y2="223.634" gradientUnits="userSpaceOnUse">
<stop offset="0.671875" stop-color="#072448"/>
<stop offset="1" stop-color="white" stop-opacity="0"/>
</linearGradient>
<linearGradient id="paint26_linear" x1="335.171" y1="174.473" x2="335.171" y2="186.412" gradientUnits="userSpaceOnUse">
<stop offset="0.671875" stop-color="#072448"/>
<stop offset="1" stop-color="white" stop-opacity="0"/>
</linearGradient>
<linearGradient id="paint27_linear" x1="334.5" y1="152" x2="334.5" y2="175.878" gradientUnits="userSpaceOnUse">
<stop offset="0.671875" stop-color="#072448"/>
<stop offset="1" stop-color="white" stop-opacity="0"/>
</linearGradient>
<linearGradient id="paint28_linear" x1="334.5" y1="164.641" x2="334.5" y2="171.664" gradientUnits="userSpaceOnUse">
<stop offset="0.671875" stop-color="#072448"/>
<stop offset="1" stop-color="white" stop-opacity="0"/>
</linearGradient>
<linearGradient id="paint29_linear" x1="334.5" y1="157.618" x2="334.5" y2="163.237" gradientUnits="userSpaceOnUse">
<stop offset="0.671875" stop-color="#072448"/>
<stop offset="1" stop-color="white" stop-opacity="0"/>
</linearGradient>
<linearGradient id="paint30_linear" x1="263" y1="206.956" x2="263" y2="276.082" gradientUnits="userSpaceOnUse">
<stop offset="0.671875" stop-color="#072448"/>
<stop offset="1" stop-color="white" stop-opacity="0"/>
</linearGradient>
<linearGradient id="paint31_linear" x1="263" y1="263.639" x2="263" y2="330" gradientUnits="userSpaceOnUse">
<stop offset="0.671875" stop-color="#072448"/>
<stop offset="1" stop-color="white" stop-opacity="0"/>
</linearGradient>
<linearGradient id="paint32_linear" x1="263" y1="198.661" x2="263" y2="210.412" gradientUnits="userSpaceOnUse">
<stop offset="0.671875" stop-color="#072448"/>
<stop offset="1" stop-color="white" stop-opacity="0"/>
</linearGradient>
<linearGradient id="paint33_linear" x1="262.307" y1="177.923" x2="262.307" y2="201.426" gradientUnits="userSpaceOnUse">
<stop offset="0.671875" stop-color="#072448"/>
<stop offset="1" stop-color="white" stop-opacity="0"/>
</linearGradient>
<linearGradient id="paint34_linear" x1="262.307" y1="188.984" x2="262.307" y2="198.661" gradientUnits="userSpaceOnUse">
<stop offset="0.671875" stop-color="#072448"/>
<stop offset="1" stop-color="white" stop-opacity="0"/>
</linearGradient>
<linearGradient id="paint35_linear" x1="262.307" y1="180.688" x2="262.307" y2="187.601" gradientUnits="userSpaceOnUse">
<stop offset="0.671875" stop-color="#072448"/>
<stop offset="1" stop-color="white" stop-opacity="0"/>
</linearGradient>
<linearGradient id="paint36_linear" x1="261.738" y1="154" x2="261.738" y2="177.606" gradientUnits="userSpaceOnUse">
<stop offset="0.671875" stop-color="#072448"/>
<stop offset="1" stop-color="white" stop-opacity="0"/>
</linearGradient>
<linearGradient id="paint37_linear" x1="267.16" y1="159.951" x2="267.16" y2="169.628" gradientUnits="userSpaceOnUse">
<stop offset="0.671875" stop-color="#072448"/>
<stop offset="1" stop-color="white" stop-opacity="0"/>
</linearGradient>
<linearGradient id="paint38_linear" x1="316.5" y1="271" x2="316.5" y2="331" gradientUnits="userSpaceOnUse">
<stop offset="0.671875" stop-color="#072448"/>
<stop offset="1" stop-color="white" stop-opacity="0"/>
</linearGradient>
<linearGradient id="paint39_linear" x1="207.5" y1="271" x2="207.5" y2="282" gradientUnits="userSpaceOnUse">
<stop offset="0.671875" stop-color="#072448"/>
<stop offset="1" stop-color="white" stop-opacity="0"/>
</linearGradient>
<linearGradient id="paint40_linear" x1="224.224" y1="302" x2="224.224" y2="399.135" gradientUnits="userSpaceOnUse">
<stop offset="0.671875" stop-color="#072448"/>
<stop offset="1" stop-color="white" stop-opacity="0"/>
</linearGradient>
<linearGradient id="paint41_linear" x1="224.224" y1="302" x2="224.224" y2="399.135" gradientUnits="userSpaceOnUse">
<stop offset="0.671875" stop-color="#072448"/>
<stop offset="1" stop-color="white" stop-opacity="0"/>
</linearGradient>
<linearGradient id="paint42_linear" x1="247" y1="258" x2="247" y2="361" gradientUnits="userSpaceOnUse">
<stop offset="0.671875" stop-color="#072448"/>
<stop offset="1" stop-color="white" stop-opacity="0"/>
</linearGradient>
<linearGradient id="paint43_linear" x1="247" y1="258" x2="247" y2="361" gradientUnits="userSpaceOnUse">
<stop offset="0.671875" stop-color="#072448"/>
<stop offset="1" stop-color="white" stop-opacity="0"/>
</linearGradient>
</defs>
</svg>
